<svg xmlns="http://www.w3.org/2000/svg" width="118.218" height="100.065" viewBox="0 0 118.218 100.065"><defs><style>.a{fill:#464646;}.b{fill:#289976;}</style></defs><g transform="translate(0 -31.93)"><g transform="translate(28.262 31.93)"><path class="a" d="M155.788,36.348A16.376,16.376,0,0,0,144.47,31.93a18.049,18.049,0,0,0-12.716,5.284L130.265,38.7l-1.489-1.49a18.055,18.055,0,0,0-12.716-5.283,16.377,16.377,0,0,0-11.318,4.418,16.9,16.9,0,0,0-.373,24.267l25.9,25.9,25.9-25.9A16.9,16.9,0,0,0,155.788,36.348Z" transform="translate(-99.418 -31.93)"/></g><g transform="translate(0 36.494)"><path class="b" d="M50.032,143.486l-.02-25.658c0-12.392-6.347-19.656-14.754-22.393-2.346-.71-4.449-2.576-6.4-4.532-3.552-3.7-7.35-8.759-12.269-8.7l0-.019a6.478,6.478,0,0,0-4.6,1.992c-3.263,3.263-1.944,8.247.869,11.061l9.14,9.139a4.548,4.548,0,0,1,0,6.432L9.633,98.458a14.241,14.241,0,0,1-4-7.963,11.159,11.159,0,0,1,9.852-12.747l-1.846-7.454C13.5,42.631,0,46.011,0,52.518v48.562a11.31,11.31,0,0,0,3.291,8c22.6,22.8,19.451,15.458,19.451,34.4Z" transform="translate(0 -47.986)"/></g><g transform="translate(68.186 36.495)"><path class="b" d="M289.89,52.519c0-6.507-13.494-9.887-13.634,17.776l-1.845,7.454A11.158,11.158,0,0,1,284.262,90.5a14.237,14.237,0,0,1-4,7.963L267.9,110.815a4.548,4.548,0,0,1,0-6.432l9.14-9.139c2.814-2.814,4.132-7.8.869-11.061a6.478,6.478,0,0,0-4.6-1.992l0,.019c-4.919-.063-8.717,5-12.269,8.7-1.956,1.956-4.058,3.822-6.4,4.532-8.407,2.736-14.754,10-14.754,22.393l-.02,25.658h27.29c0-18.944-3.145-11.6,19.451-34.4a11.31,11.31,0,0,0,3.291-8Z" transform="translate(-239.859 -47.987)"/></g></g></svg>