<svg xmlns="http://www.w3.org/2000/svg" width="94.995" height="133.857" viewBox="0 0 94.995 133.857"><defs><style>.a{fill:#f6d190;}.b{fill:#ecbd83;}.c{fill:#464646;}.d{fill:#ffe09f;}.e{fill:#e2a975;}.f{fill:#77d1b5;}.g{fill:#b57f5f;}.h{fill:#289976;}</style></defs><g transform="translate(-74.323)"><path class="a" d="M216.024,343.459l-6.554-2.807a6.477,6.477,0,0,1-3.927-5.954v-4.372h-21.59V334.7a6.477,6.477,0,0,1-3.927,5.954l-6.554,2.807-.406,22.861H216.43Z" transform="translate(-72.927 -243.965)"/><path class="b" d="M214.71,305.927a28.076,28.076,0,0,0,21.59,0V297.29H214.71Z" transform="translate(-103.684 -219.566)"/><path class="c" d="M200.837,112.953,146.611,94.881a30.093,30.093,0,0,0-6.224,18.374v10.8h60.452v-10.8Q200.839,113.1,200.837,112.953Z" transform="translate(-48.792 -70.075)"/><path class="d" d="M227.6,147.243h-3.238a4.318,4.318,0,0,1-4.318-4.318v-2.159a8.636,8.636,0,0,0-8.636-8.636h-21.59a8.6,8.6,0,0,0-4.318,1.156L181,154.318c0,13.116,6.7,27.133,19.812,27.133a21.894,21.894,0,0,0,4.141-.061,23.756,23.756,0,0,0,19.4-23.352h2.931a5.609,5.609,0,0,0,5.677-4.841A5.4,5.4,0,0,0,227.6,147.243Z" transform="translate(-78.787 -97.586)"/><path class="a" d="M149.4,161.3V136.553a8.667,8.667,0,0,0-4.318,7.479v2.159a4.318,4.318,0,0,1-4.318,4.318h-2.93a5.61,5.61,0,0,0-5.678,4.841,5.4,5.4,0,0,0,5.369,5.954h3.238a23.749,23.749,0,0,0,23.749,23.749,24.142,24.142,0,0,0,4.346-.4A23.782,23.782,0,0,1,149.4,161.3Z" transform="translate(-42.694 -100.853)"/><path class="e" d="M200.353,194.63a2.159,2.159,0,0,1-1.05-4.046l4.375-2.431-4.375-2.431a2.158,2.158,0,1,1,2.1-3.774l7.772,4.318a2.158,2.158,0,0,1,0,3.774l-7.772,4.318A2.147,2.147,0,0,1,200.353,194.63Z" transform="translate(-91.484 -134.178)"/><path class="e" d="M277.492,194.63a2.147,2.147,0,0,1-1.046-.272l-7.772-4.318a2.158,2.158,0,0,1,0-3.774l7.772-4.318a2.158,2.158,0,1,1,2.1,3.774l-4.375,2.431,4.375,2.431a2.159,2.159,0,0,1-1.05,4.046Z" transform="translate(-142.72 -134.178)"/><path class="f" d="M76.48,295.5a2.159,2.159,0,0,1-.266-4.3l17.272-2.159a2.159,2.159,0,1,1,.536,4.284L76.75,295.486A2.113,2.113,0,0,1,76.48,295.5Z" transform="translate(0 -213.461)"/><path class="f" d="M134.288,322.44a2.159,2.159,0,0,1-1.2-3.955l6.477-4.318a2.159,2.159,0,0,1,2.4,3.593l-6.477,4.318A2.151,2.151,0,0,1,134.288,322.44Z" transform="translate(-42.691 -231.762)"/><path class="f" d="M113.832,260.318h-4.318a2.159,2.159,0,1,1,0-4.318h4.318a2.159,2.159,0,0,1,0,4.318Z" transform="translate(-24.396 -189.071)"/><path class="g" d="M242.021,256.378h-8.636a2.159,2.159,0,0,1-2.159-2.159,6.477,6.477,0,1,1,12.954,0A2.159,2.159,0,0,1,242.021,256.378Z" transform="translate(-115.882 -182.972)"/><path class="c" d="M243.8,368.426a2.159,2.159,0,0,1-1.929-3.125l2.756-5.511h-2.983a2.159,2.159,0,0,1-1.931-3.124l4.318-8.636a2.159,2.159,0,0,1,3.863,1.931l-2.756,5.511h2.983a2.159,2.159,0,0,1,1.931,3.124l-4.318,8.636A2.16,2.16,0,0,1,243.8,368.426Z" transform="translate(-121.979 -256.158)"/><path class="f" d="M374.529,295.5a2.1,2.1,0,0,1-.27-.017l-17.272-2.159a2.159,2.159,0,0,1,.536-4.284L374.8,291.2a2.159,2.159,0,0,1-.266,4.3Z" transform="translate(-207.368 -213.461)"/><path class="f" d="M347.212,322.439a2.151,2.151,0,0,1-1.2-.363l-6.477-4.318a2.159,2.159,0,0,1,2.4-3.593l6.477,4.318a2.159,2.159,0,0,1-1.2,3.955Z" transform="translate(-195.168 -231.762)"/><path class="f" d="M378.09,260.318h-4.318a2.159,2.159,0,0,1,0-4.318h4.318a2.159,2.159,0,0,1,0,4.318Z" transform="translate(-219.566 -189.071)"/><circle class="c" cx="17.272" cy="17.272" r="17.272" transform="translate(104.549 0)"/><path class="c" d="M188.2,49.548a30.176,30.176,0,0,0-24,11.852,71.062,71.062,0,0,0,47.751,18.374c2.18,0,4.346-.111,6.476-.3A30.232,30.232,0,0,0,188.2,49.548Z" transform="translate(-66.375 -36.594)"/><path class="h" d="M181.138,415.508v-14.47a10.8,10.8,0,0,0-6.545-9.923l-9.222-3.917s-9.738,12.049-20.82,19.324a8.055,8.055,0,0,1-8.868,0c-11.082-7.275-20.82-19.324-20.82-19.324l-9.222,3.917a10.8,10.8,0,0,0-6.545,9.923v14.47a4.318,4.318,0,0,0,4.318,4.318H176.82A4.318,4.318,0,0,0,181.138,415.508Z" transform="translate(-18.296 -285.968)"/><path class="f" d="M163.357,380.559l-3.987,1.707c0,.009,0,.019.009.028a62.622,62.622,0,0,0,19.608,21.121,10.283,10.283,0,0,0,11.293,0,62.626,62.626,0,0,0,19.608-21.121c0-.009,0-.019.009-.028l-3.987-1.707a58.1,58.1,0,0,1-18,19.247,5.965,5.965,0,0,1-6.553,0A58.1,58.1,0,0,1,163.357,380.559Z" transform="translate(-62.812 -281.066)"/></g></svg>