<svg xmlns="http://www.w3.org/2000/svg" width="108.745" height="115.307" viewBox="0 0 108.745 115.307"><defs><style>.a{fill:#ffb983;}.b{fill:#fcd0a3;}.c{fill:#464646;}.d{fill:#289976;}.e{fill:#fc8086;}</style></defs><g transform="translate(-14.569)"><g transform="translate(14.569)"><path class="a" d="M178.879,451.1v11.462a2.252,2.252,0,0,1-2.252,2.252H147.776a2.252,2.252,0,0,1-2.252-2.252V451.1Z" transform="translate(-116.032 -349.511)"/><path class="b" d="M56.195,174.829v32.576a23.966,23.966,0,0,0,7.288,17.211l12.829,12.432a23.966,23.966,0,0,0,33.355,0L122.5,224.616a23.965,23.965,0,0,0,7.288-17.211V174.829Z" transform="translate(-46.82 -135.456)"/><path class="a" d="M284.19,174.829H281.13a27.275,27.275,0,0,0-20.462,33.958L256,216.145a3.281,3.281,0,0,0,2.89,5.037l8.877-.324a27.018,27.018,0,0,0,7.566,5.281l1.572-1.523a23.965,23.965,0,0,0,7.288-17.211V174.829Z" transform="translate(-201.226 -135.456)"/><path class="b" d="M23.944,213.041h-4.87a4.5,4.5,0,0,1-4.5-4.5V195.984a4.5,4.5,0,0,1,4.5-4.5h4.87Z" transform="translate(-14.569 -148.357)"/><path class="b" d="M382.959,213.041h4.87a4.5,4.5,0,0,0,4.5-4.5V195.984a4.5,4.5,0,0,0-4.5-4.5h-4.87Z" transform="translate(-299.994 -148.357)"/><path class="c" d="M76.864,0A41.482,41.482,0,0,0,35.382,41.482v1.641h4.687V64.684l7.877-20.13a2.252,2.252,0,0,1,2.1-1.431h53.642a2.252,2.252,0,0,1,2.1,1.431l7.877,20.13V43.123h4.687V41.482A41.482,41.482,0,0,0,76.864,0Z" transform="translate(-30.695)"/><path class="c" d="M197,0a41.794,41.794,0,0,0-6.562.518,41.492,41.492,0,0,1,34.92,40.964v2.247a2.245,2.245,0,0,1,.56.825l7.877,20.13V43.123h4.687V41.482A41.482,41.482,0,0,0,197,0Z" transform="translate(-150.832)"/></g><g transform="translate(74.657 42.983)"><path class="d" d="M312.9,191.621A23.039,23.039,0,0,0,285.353,221.8l-3.829,6.033a.928.928,0,0,0,.818,1.425l7.251-.265a23.038,23.038,0,1,0,23.3-37.369Z" transform="translate(-281.378 -190.857)"/><circle class="a" cx="16.945" cy="16.945" r="16.945" transform="translate(8.669 6.088)"/><g transform="translate(15.138 12.017)"><circle class="e" cx="3.516" cy="3.516" r="3.516" transform="translate(7.5)"/><circle class="e" cx="3.516" cy="3.516" r="3.516" transform="translate(12.656 11.952)"/><circle class="e" cx="3.516" cy="3.516" r="3.516" transform="translate(0 10.312)"/></g></g><g transform="translate(31.678 72.653)"><circle class="e" cx="1.875" cy="1.875" r="1.875" transform="translate(6.093)"/><circle class="e" cx="1.875" cy="1.875" r="1.875" transform="translate(6.093 11.718)"/><circle class="e" cx="1.875" cy="1.875" r="1.875" transform="translate(12.187 7.031)"/><circle class="e" cx="1.875" cy="1.875" r="1.875" transform="translate(0 4.687)"/></g></g></svg>