<svg xmlns="http://www.w3.org/2000/svg" width="116.37" height="116.365" viewBox="0 0 116.37 116.365"><defs><style>.a{fill:#464646;}.b{fill:#77d1b5;}.c{fill:#289976;}</style></defs><g transform="translate(0 -0.012)"><g transform="translate(0 0.012)"><g transform="translate(0 0)"><path class="a" d="M206.546,106.679a14.5,14.5,0,0,0,9.93-25.107c-14.614-37.995,4.18-77.687,4.373-78.084a2.424,2.424,0,0,0-4.155-2.463C215.686,2.431,192,36.237,192,92.133A14.564,14.564,0,0,0,206.546,106.679Z" transform="translate(-148.361 -0.012)"/><path class="b" d="M7.273,426.655a7.273,7.273,0,1,0,7.273,7.273A7.276,7.276,0,0,0,7.273,426.655Z" transform="translate(0 -329.686)"/><path class="b" d="M92.606,447.988a7.273,7.273,0,1,0,7.273,7.273A7.276,7.276,0,0,0,92.606,447.988Z" transform="translate(-65.938 -346.17)"/><path class="b" d="M369.94,426.655a7.273,7.273,0,1,0,7.273,7.273A7.276,7.276,0,0,0,369.94,426.655Z" transform="translate(-280.238 -329.686)"/><path class="c" d="M109.1,388.837a2.424,2.424,0,1,0,0-4.849H79.762a2.433,2.433,0,0,0-2.415,2.7l.1.771a9.9,9.9,0,0,1,.131,1.382,19.395,19.395,0,0,1-38.79,0,10.161,10.161,0,0,1,.126-1.343l.1-.761a3.334,3.334,0,0,0-.015-.621,2.424,2.424,0,0,0-2.4-2.124H2.424a2.424,2.424,0,1,0,0,4.849H33.941a24.244,24.244,0,0,0,48.488,0Z" transform="translate(0 -296.716)"/><path class="b" d="M455.273,447.988a7.273,7.273,0,1,0,7.273,7.273A7.276,7.276,0,0,0,455.273,447.988Z" transform="translate(-346.176 -346.17)"/></g></g></g></svg>