<svg xmlns="http://www.w3.org/2000/svg" width="83.301" height="125.967" viewBox="0 0 83.301 125.967"><defs><style>.a{fill:#f6d190;}.b{fill:#77d1b5;}.c{fill:#ecbd83;}.d{fill:#464646;}.e{fill:#ffe09f;}.f{fill:#e2a975;}.g{fill:#289976;}</style></defs><g transform="translate(-86.709)"><path class="a" d="M217.927,337.268l-1.776-.729a4.063,4.063,0,0,1-2.521-3.76v-6.374H189.248v6.419a4.063,4.063,0,0,1-2.464,3.735l-1.8.772,1.85,16.407,31,.861Z" transform="translate(-74.095 -246.1)"/><path class="b" d="M185.367,373.641l-7.525-3.087a18.255,18.255,0,0,1-32.945.064l-7.471,3.2-5.609,16.159h59.074Z" transform="translate(-34.01 -279.386)"/><path class="c" d="M202.322,304.453a26.3,26.3,0,0,0,24.381,0V297.29H202.322v7.163Z" transform="translate(-87.169 -224.148)"/><path class="d" d="M192.029,49.548h-4.063l-22.349,6.1-9.283,34.54h51.95V65.8a16.254,16.254,0,0,0-16.254-16.254Z" transform="translate(-52.494 -37.358)"/><path class="d" d="M150.481,74.323h-4.063a10.159,10.159,0,0,0-10.159,10.159v24.381h14.222Z" transform="translate(-37.359 -56.037)"/><path class="e" d="M217.3,146.352h-3.048a4.063,4.063,0,0,1-4.063-4.063v-4.063a6.1,6.1,0,0,0-6.1-6.1H179.712a6.087,6.087,0,0,0-2.031.347l-5.347,24.035c0,12.343,7.225,21.964,19.568,21.964a22.8,22.8,0,0,0,4.077.014,22.356,22.356,0,0,0,18.271-21.978h2.758a5.279,5.279,0,0,0,5.343-4.556A5.08,5.08,0,0,0,217.3,146.352Z" transform="translate(-64.559 -99.622)"/><path class="a" d="M144.255,157.566V133.53a6.115,6.115,0,0,0-4.063,5.751v4.063a4.064,4.064,0,0,1-4.063,4.063H133.37a5.279,5.279,0,0,0-5.343,4.555,5.08,5.08,0,0,0,5.053,5.6h3.048a22.369,22.369,0,0,0,26.426,21.978,22.372,22.372,0,0,1-18.3-21.978Z" transform="translate(-31.133 -100.677)"/><path class="f" d="M196.1,193.867a2.031,2.031,0,0,1-.988-3.808l4.117-2.288-4.117-2.288a2.031,2.031,0,1,1,1.972-3.552L204.394,186a2.031,2.031,0,0,1,0,3.552l-7.314,4.063A2.02,2.02,0,0,1,196.1,193.867Z" transform="translate(-80.941 -136.978)"/><path class="f" d="M272.779,193.867a2.02,2.02,0,0,1-.984-.256l-7.313-4.063a2.031,2.031,0,0,1,0-3.552l7.313-4.063a2.031,2.031,0,1,1,1.972,3.552l-4.117,2.288,4.117,2.288a2.031,2.031,0,0,1-.988,3.808Z" transform="translate(-133.247 -136.978)"/><path class="f" d="M236.029,253.727a2.016,2.016,0,0,1-1.149-.357,7.308,7.308,0,0,0-7.012,0,2.032,2.032,0,0,1-2.3-3.349,11.333,11.333,0,0,1,11.615,0,2.032,2.032,0,0,1-1.153,3.706Z" transform="translate(-104.031 -187.3)"/><path class="g" d="M204.216,0,200.75,16.484l5.9,1.23.093,15.719,14.706-21.243h-8.127L216.5,2.674A2.032,2.032,0,0,0,214.572,0Z" transform="translate(-85.983 0)"/><g transform="translate(86.709 2.03)"><path class="b" d="M125.838,18.413a2.029,2.029,0,0,1-1.692-.9l-4.063-6.1a2.032,2.032,0,1,1,3.381-2.254l4.063,6.1a2.032,2.032,0,0,1-1.689,3.159Z" transform="translate(-111.614 -8.253)"/><path class="b" d="M94.837,55.638a2.031,2.031,0,0,1-.643-.105L88.1,53.5a2.032,2.032,0,0,1,1.286-3.855l6.1,2.032a2.033,2.033,0,0,1-.643,3.96Z" transform="translate(-86.711 -39.382)"/><path class="b" d="M361.253,18.412a2.032,2.032,0,0,1-1.688-3.159l4.063-6.1a2.032,2.032,0,1,1,3.381,2.254l-4.063,6.1a2.028,2.028,0,0,1-1.693.9Z" transform="translate(-292.176 -8.252)"/><path class="b" d="M386.032,55.638a2.033,2.033,0,0,1-.643-3.96l6.1-2.032A2.032,2.032,0,0,1,392.77,53.5l-6.1,2.032a2.031,2.031,0,0,1-.643.105Z" transform="translate(-310.858 -39.382)"/></g><path class="g" d="M162.936,387.85l-11.579-4.75a26.376,26.376,0,0,1-47.941.177l-11.78,5.045a8.127,8.127,0,0,0-4.928,7.47V410.75a4.064,4.064,0,0,0,4.063,4.063h73.143a4.064,4.064,0,0,0,4.063-4.063V395.368a8.126,8.126,0,0,0-5.042-7.518Z" transform="translate(0 -288.846)"/><path class="b" d="M203.193,18.589a3.047,3.047,0,0,0-3.032-3.351h-2.69L199.176,0h-1.26A2.032,2.032,0,0,0,195.9,1.807l-1.831,16.478h6.1l-1.744,17.441a.747.747,0,0,0,1.358.5l1.933-2.793Z" transform="translate(-80.944 0)"/></g></svg>