<svg xmlns="http://www.w3.org/2000/svg" width="101.114" height="101.114" viewBox="0 0 101.114 101.114"><defs><style>.a{fill:#77d1b5;}.b{fill:#b27946;}.c{fill:#289976;}.d{fill:#f0d0b4;}.e{fill:none;}</style></defs><g transform="translate(-1 -1)"><g transform="translate(2.631 2.631)"><g transform="translate(0 0)"><path class="a" d="M90.067,18.309H79.809a9.788,9.788,0,0,1-8.758-5.414l-2.74-5.48A9.788,9.788,0,0,0,59.553,2H37.406a9.788,9.788,0,0,0-8.758,5.414l-2.74,5.48a9.788,9.788,0,0,1-8.758,5.414H11.785A9.793,9.793,0,0,0,2,28.094V65.669a9.8,9.8,0,0,0,5.936,9l10.959,4.7a9.8,9.8,0,0,1,5.936,9v1.7a9.793,9.793,0,0,0,9.785,9.785H67.235a9.793,9.793,0,0,0,9.785-9.785v-1.7a9.8,9.8,0,0,1,5.936-9l10.959-4.7a9.8,9.8,0,0,0,5.936-9V28.094A9.793,9.793,0,0,0,90.067,18.309Z" transform="translate(-2 -2)"/></g><g transform="translate(32.617 9.785)"><path class="b" d="M38.309,22.678l-3.881.408-4.273-.408h-.815A7.339,7.339,0,1,1,29.339,8h8.97A13.029,13.029,0,0,1,51.356,21.047l.75,1.125A14.983,14.983,0,0,1,49.4,41.84l-6.2,5.3V38.986l2.3-2.3a3.272,3.272,0,0,0,.962-2.316v-.277A3.285,3.285,0,0,0,43.2,30.832V27.57A4.886,4.886,0,0,0,38.309,22.678Z" transform="translate(-22 -8)"/></g><g transform="translate(21.821 53.541)"><path class="c" d="M58.794,53.047V79.141H26.176V53.047a22.6,22.6,0,0,1-10.8-2.756L19.93,34.83a13.03,13.03,0,0,0,6.784,1.908,13.738,13.738,0,0,0,2.169-.179l5.659-.946,1.419,14.172,6.523-6.523,6.523,6.523,1.419-14.172,5.659.946a13.738,13.738,0,0,0,2.169.179A13.03,13.03,0,0,0,65.04,34.83l4.55,15.477a22.772,22.772,0,0,1-10.8,2.74Z" transform="translate(-15.38 -34.83)"/></g><g transform="translate(48.926 53.818)"><path class="c" d="M39.942,35.506,38.523,49.678,32,43.154,36.893,35Z" transform="translate(-32 -35)"/></g><g transform="translate(40.984 53.818)"><path class="c" d="M30.18,35l4.893,8.154-6.523,6.523L27.13,35.506Z" transform="translate(-27.13 -35)"/></g><g transform="translate(71.481 26.094)"><path class="d" d="M62.416,26.154v14.27a22.771,22.771,0,0,1-1.158,7.159l-.212.6A22.617,22.617,0,0,1,50.38,60.924L45.83,45.447a12.985,12.985,0,0,0,2.5-1.941l.457-.457a13.136,13.136,0,0,0,3.849-9.28V31.047L50.8,29.22a4.916,4.916,0,0,1-1.435-3.457v-2.87A4.886,4.886,0,0,1,54.262,18a8.13,8.13,0,0,1,8.154,8.154Z" transform="translate(-45.83 -18)"/></g><g transform="translate(9.785 26.094)"><path class="d" d="M24.586,45.447l-4.55,15.461a23.291,23.291,0,0,1-2.43-1.517,22.542,22.542,0,0,1-8.236-11.2l-.212-.6A22.771,22.771,0,0,1,8,40.424V26.154A8.157,8.157,0,0,1,16.154,18a4.9,4.9,0,0,1,4.893,4.893v2.87a4.916,4.916,0,0,1-1.435,3.457l-1.827,1.827V33.77a13.136,13.136,0,0,0,3.849,9.28l.457.457a12.985,12.985,0,0,0,2.5,1.941Z" transform="translate(-8 -18)"/></g><g transform="translate(32.617 24.463)"><path class="d" d="M43.2,41.463v4.893L38.309,54.51l-4.893-8.154V41.463h-.962A5.568,5.568,0,0,1,26.893,35.9V31.678L22,30.047c0-3.115,1.99-7.567,3.425-10.372A4.909,4.909,0,0,1,29.8,17h.359l4.273.408L38.309,17A4.886,4.886,0,0,1,43.2,21.893v3.262a3.285,3.285,0,0,1,3.262,3.262v.277a3.272,3.272,0,0,1-.962,2.316l-2.3,2.3Z" transform="translate(-22 -17)"/></g></g><g transform="translate(1 1)"><path class="e" d="M90.7,17.309H80.436A8.112,8.112,0,0,1,73.143,12.8L70.4,7.31A11.352,11.352,0,0,0,60.187,1H38.034A11.356,11.356,0,0,0,27.823,7.31L25.076,12.8a8.108,8.108,0,0,1-7.292,4.508H12.416A11.431,11.431,0,0,0,1,28.725V66.306A11.4,11.4,0,0,0,7.92,76.8l10.971,4.7A8.145,8.145,0,0,1,23.832,89v1.7a11.431,11.431,0,0,0,11.416,11.416H67.865A11.431,11.431,0,0,0,79.281,90.7v-1.7a8.145,8.145,0,0,1,4.942-7.5l10.971-4.7a11.4,11.4,0,0,0,6.92-10.491V28.725A11.431,11.431,0,0,0,90.7,17.309ZM24.892,54.923l.465.465a14.8,14.8,0,0,0,1.74,1.465L23.483,69.141A20.96,20.96,0,0,1,15.327,58.4l-.2-.613a21,21,0,0,1-1.076-6.639V36.879a6.53,6.53,0,0,1,6.523-6.523,3.265,3.265,0,0,1,3.262,3.262v2.867a3.286,3.286,0,0,1-.956,2.306L20.57,41.1v3.392A14.659,14.659,0,0,0,24.892,54.923Zm5.116,3.593a14.717,14.717,0,0,0,8.21.995l3.948-.659,1.587,15.862,7.8-7.8,7.8,7.8,1.587-15.862,3.95.659a14.721,14.721,0,0,0,8.208-.995l3.611,12.276a20.974,20.974,0,0,1-8.851,1.967H66.235V98.852H36.879V72.758H35.248A20.974,20.974,0,0,1,26.4,70.791ZM36.972,39a30.034,30.034,0,0,1,3.159-8.489,3.253,3.253,0,0,1,2.906-1.784H43.4V25.463h-.815a5.708,5.708,0,0,1,0-11.416h8.97A11.431,11.431,0,0,1,62.973,25.465v.494L64,27.49a13.341,13.341,0,0,1-2.417,17.525l-3.5,3V44.079l1.828-1.828a4.863,4.863,0,0,0,1.434-3.461V38.51A4.9,4.9,0,0,0,58.08,33.9v-1.91a6.53,6.53,0,0,0-6.523-6.523v3.262a3.265,3.265,0,0,1,3.262,3.262v4.893h1.631A1.631,1.631,0,0,1,58.08,38.51v.281a1.636,1.636,0,0,1-.478,1.153l-2.784,2.784V56l-3.262,5.437L48.3,56V53.189l3.262,0V49.926l-5.848,0a3.937,3.937,0,0,1-3.937-3.939V40.6Zm20.3,19.243.445.075L56.8,67.541l-3.19-3.19Zm-11.439,0L49.5,64.351l-3.19,3.19-.923-9.226Zm34.4-19.45a3.286,3.286,0,0,1-.956-2.306V33.617a3.265,3.265,0,0,1,3.262-3.262,6.53,6.53,0,0,1,6.523,6.523V51.146a20.98,20.98,0,0,1-1.076,6.638l-.205.616a20.956,20.956,0,0,1-8.156,10.741L76.015,56.852a14.8,14.8,0,0,0,1.74-1.465l.465-.465a14.659,14.659,0,0,0,4.322-10.434V41.1ZM98.852,66.306a8.145,8.145,0,0,1-4.942,7.5L82.939,78.5a11.4,11.4,0,0,0-6.92,10.491v1.7a8.17,8.17,0,0,1-6.523,7.99V75.966A24.218,24.218,0,0,0,90.877,59.434l.205-.616a24.174,24.174,0,0,0,1.246-7.672V36.879a9.8,9.8,0,0,0-9.785-9.785,6.53,6.53,0,0,0-6.523,6.523v2.867A6.563,6.563,0,0,0,77.931,41.1l1.35,1.35v2.042a11.419,11.419,0,0,1-3.366,8.128l-.465.465a11.474,11.474,0,0,1-10.02,3.211l-7.35-1.225V52.307l5.62-4.816A16.6,16.6,0,0,0,66.709,25.68l-.483-.724a14.7,14.7,0,0,0-14.67-14.171h-8.97a8.965,8.965,0,0,0-4.361,16.8,6.615,6.615,0,0,0-1,1.435c-1.647,3.213-3.611,7.751-3.611,11.121v1.176l4.893,1.631v3.04a7.133,7.133,0,0,0,6.523,7.135V55.07l-7.349,1.225a11.471,11.471,0,0,1-10.022-3.211l-.465-.465a11.426,11.426,0,0,1-3.366-8.13V42.447l1.35-1.35a6.563,6.563,0,0,0,1.911-4.612V33.617a6.53,6.53,0,0,0-6.523-6.523,9.8,9.8,0,0,0-9.785,9.785V51.146a24.191,24.191,0,0,0,1.246,7.673l.205.613A24.22,24.22,0,0,0,33.617,75.966V98.687a8.168,8.168,0,0,1-6.523-7.99v-1.7A11.4,11.4,0,0,0,20.174,78.5L9.2,73.8a8.145,8.145,0,0,1-4.942-7.5V28.725a8.164,8.164,0,0,1,8.154-8.154h5.369A11.356,11.356,0,0,0,28,14.261l2.746-5.491a8.108,8.108,0,0,1,7.292-4.508H60.187a8.112,8.112,0,0,1,7.293,4.508l2.746,5.491a11.352,11.352,0,0,0,10.209,6.31H90.7a8.164,8.164,0,0,1,8.154,8.154Z" transform="translate(-1 -1)"/><path class="e" d="M34.046,21c-1.556-1.556-2.784-2.784-2.784-7H28c0,5.568,1.986,7.556,3.74,9.307Z" transform="translate(16.033 7.201)"/><path d="M56,53h3.262v3.262H56Z" transform="translate(33.697 31.805)"/><path d="M56,57h3.262v3.262H56Z" transform="translate(33.697 34.328)"/><path d="M58,55h3.262v3.262H58Z" transform="translate(34.959 33.067)"/><path d="M54,55h3.262v3.262H54Z" transform="translate(32.436 33.067)"/><path d="M49,3h3.262V6.262H49Z" transform="translate(29.281 0.262)"/><path d="M49,7h3.262v3.262H49Z" transform="translate(29.281 2.785)"/><path d="M51,5h3.262V8.262H51Z" transform="translate(30.543 1.523)"/><path d="M47,5h3.262V8.262H47Z" transform="translate(28.02 1.523)"/><path d="M6,53H9.262v3.262H6Z" transform="translate(2.154 31.805)"/><path d="M6,57H9.262v3.262H6Z" transform="translate(2.154 34.328)"/><path d="M4,55H7.262v3.262H4Z" transform="translate(0.893 33.067)"/><path d="M8,55h3.262v3.262H8Z" transform="translate(3.416 33.067)"/><path d="M9,3h3.262V6.262H9Z" transform="translate(4.047 0.262)"/><path d="M9,7h3.262v3.262H9Z" transform="translate(4.047 2.785)"/><path d="M7,5h3.262V8.262H7Z" transform="translate(2.785 1.523)"/><path d="M11,5h3.262V8.262H11Z" transform="translate(5.309 1.523)"/><path d="M35,48h6.523v3.262H35Z" transform="translate(20.449 28.651)"/></g></g></svg>