<svg xmlns="http://www.w3.org/2000/svg" width="18" height="18" viewBox="0 0 18 18"><defs><style>.a{fill:#fff;}</style></defs><path class="a" d="M21.97,18.6a15.119,15.119,0,0,0-3.158-2.113c-.947-.455-1.293-.445-1.963.037-.558.4-.918.778-1.56.637a9.308,9.308,0,0,1-3.135-2.32A9.242,9.242,0,0,1,9.834,11.7c-.136-.647.239-1,.637-1.561.483-.67.5-1.017.037-1.964A14.821,14.821,0,0,0,8.4,5.021c-.689-.689-.843-.539-1.223-.4a6.959,6.959,0,0,0-1.12.6,3.379,3.379,0,0,0-1.345,1.42c-.267.576-.576,1.65,1,4.452a24.841,24.841,0,0,0,4.367,5.825h0l0,0,0,0h0a24.936,24.936,0,0,0,5.824,4.368c2.8,1.575,3.875,1.265,4.452,1a3.321,3.321,0,0,0,1.42-1.345,6.96,6.96,0,0,0,.6-1.12C22.509,19.44,22.664,19.286,21.97,18.6Z" transform="translate(-4.49 -4.502)"/></svg>