<svg xmlns="http://www.w3.org/2000/svg" width="88.22" height="100.138" viewBox="0 0 88.22 100.138"><defs><style>.a{fill:#289976;}.b{fill:#77d1b5;}.c{fill:#464646;}.d{fill:#fff;}.e{fill:#ebdfd9;}</style></defs><g transform="translate(-30.469)"><path class="a" d="M118.689,15.9V39.5c0,21.316-11.051,41.092-28.841,51.612l-15.269,9.028L59.311,91.11C41.52,80.59,30.469,60.814,30.469,39.5V15.9l2.817-.107a13.064,13.064,0,0,0,12.561-12.9L45.884,0h57.39l.037,2.893a13.063,13.063,0,0,0,12.561,12.9Z" transform="translate(0)"/><path class="b" d="M300.11,15.9V39.5c0,21.316-11.051,41.092-28.841,51.612L256,100.138V0h28.695l.037,2.893a13.063,13.063,0,0,0,12.561,12.9Z" transform="translate(-181.421 0)"/><circle class="c" cx="26.605" cy="26.605" r="26.605" transform="translate(36.949 45.942) rotate(-45)"/><path class="c" d="M282.6,125.474a26.634,26.634,0,0,1-26.6,26.6V98.869A26.634,26.634,0,0,1,282.6,125.474Z" transform="translate(-181.421 -79.532)"/><path class="d" d="M215.8,178.851v5.86h-9.985V194.7h-5.86V184.71h-9.985v-5.86h9.985v-9.985h5.86v9.985Z" transform="translate(-128.304 -135.839)"/><path class="e" d="M268.915,178.851v5.86H258.93V194.7H256V168.866h2.93v9.985Z" transform="translate(-181.421 -135.839)"/></g></svg>