<svg xmlns="http://www.w3.org/2000/svg" width="85.092" height="102.756" viewBox="0 0 85.092 102.756"><defs><style>.a{fill:#289976;}.b{fill:#77d1b5;}.c{fill:#464646;}</style></defs><g transform="translate(-44.007)"><path class="a" d="M77.423,110.525V56.182a2.067,2.067,0,0,0-2.068-2.068H46.075a2.067,2.067,0,0,0-2.068,2.068v87.76a2.067,2.067,0,0,0,2.068,2.068h43.9a2.067,2.067,0,0,0,2.068-2.068V114.661a2.067,2.067,0,0,0-2.068-2.068H79.491a2.068,2.068,0,0,1-2.068-2.068Z" transform="translate(0 -43.254)"/><path class="b" d="M183.461,118.232H201.84V114.66a2.067,2.067,0,0,0-2.068-2.068H189.287a2.067,2.067,0,0,1-2.068-2.068V56.182a2.067,2.067,0,0,0-2.068-2.068h-3.78v62.029A2.089,2.089,0,0,0,183.461,118.232Z" transform="translate(-109.797 -43.254)"/><path class="a" d="M87.39,10.86H60.657V2.007A2.007,2.007,0,0,1,62.664,0H85.383A2.007,2.007,0,0,1,87.39,2.007Z" transform="translate(-13.308 0)"/><path class="a" d="M172.007,0V10.86h4.386V2.068A2.068,2.068,0,0,0,174.325,0Z" transform="translate(-102.311)"/><path class="b" d="M77.423,62.468H44.007V56.121a2.007,2.007,0,0,1,2.007-2.007h29.4a2.007,2.007,0,0,1,2.007,2.007Z" transform="translate(0 -43.254)"/><path class="b" d="M181.372,54.114v8.354h5.848V56.182a2.067,2.067,0,0,0-2.068-2.068Z" transform="translate(-109.797 -43.254)"/><path class="b" d="M283.356,391.371V366.309h14.7a2.007,2.007,0,0,1,2.007,2.007v21.048a2.007,2.007,0,0,1-2.007,2.007Z" transform="translate(-191.313 -292.793)"/><path class="c" d="M342.673,366.309v25.062h2.736a2.067,2.067,0,0,0,2.068-2.068V368.377a2.067,2.067,0,0,0-2.068-2.068Z" transform="translate(-238.725 -292.793)"/><g transform="translate(51.855 77.396)"><g transform="translate(0 14.202)"><path class="c" d="M99.28,459.506H84.661a1.551,1.551,0,1,1,0-3.1H99.28a1.551,1.551,0,1,1,0,3.1Z" transform="translate(-83.11 -456.405)"/></g><g transform="translate(0 7.101)"><path class="c" d="M99.28,424.123H84.661a1.551,1.551,0,0,1,0-3.1H99.28a1.551,1.551,0,1,1,0,3.1Z" transform="translate(-83.11 -421.022)"/></g><path class="c" d="M99.28,388.741H84.661a1.551,1.551,0,1,1,0-3.1H99.28a1.551,1.551,0,1,1,0,3.1Z" transform="translate(-83.11 -385.64)"/></g><g transform="translate(113.257 84.497)"><path class="b" d="M391.852,424.123h-1.241a1.551,1.551,0,0,1,0-3.1h1.241a1.551,1.551,0,1,1,0,3.1Z" transform="translate(-389.061 -421.022)"/><g transform="translate(5.408)"><path class="b" d="M419.482,424.123h-1.924a1.551,1.551,0,0,1,0-3.1h1.924a1.551,1.551,0,0,1,0,3.1Z" transform="translate(-416.008 -421.022)"/></g><g transform="translate(11.5)"><path class="b" d="M449.151,424.123h-1.241a1.551,1.551,0,0,1,0-3.1h1.241a1.551,1.551,0,0,1,0,3.1Z" transform="translate(-446.36 -421.022)"/></g></g><g transform="translate(113.257 72.373)"><g transform="translate(0 3.025)"><path class="b" d="M390.609,379.116a1.551,1.551,0,0,1-.407-3.047l1.2-.326a1.551,1.551,0,1,1,.815,2.992l-1.2.326A1.547,1.547,0,0,1,390.609,379.116Z" transform="translate(-389.059 -375.688)"/></g><g transform="translate(5.221 1.422)"><path class="b" d="M416.622,371.309a1.551,1.551,0,0,1-.407-3.047l1.857-.506a1.551,1.551,0,1,1,.815,2.992l-1.857.506a1.555,1.555,0,0,1-.409.055Z" transform="translate(-415.072 -367.701)"/></g><g transform="translate(11.102)"><path class="b" d="M445.926,364.042a1.551,1.551,0,0,1-.407-3.047l1.2-.326a1.551,1.551,0,1,1,.815,2.992l-1.2.326A1.546,1.546,0,0,1,445.926,364.042Z" transform="translate(-444.376 -360.614)"/></g></g><g transform="translate(113.257 93.268)"><path class="b" d="M391.807,468.156a1.555,1.555,0,0,1-.409-.055l-1.2-.326a1.551,1.551,0,0,1,.815-2.992l1.2.326a1.551,1.551,0,0,1-.407,3.047Z" transform="translate(-389.058 -464.728)"/><g transform="translate(5.221 1.422)"><path class="b" d="M418.481,475.423a1.555,1.555,0,0,1-.409-.055l-1.857-.506a1.551,1.551,0,0,1,.815-2.992l1.857.506a1.551,1.551,0,0,1-.407,3.047Z" transform="translate(-415.072 -471.814)"/></g><g transform="translate(11.102 3.025)"><path class="b" d="M447.125,483.23a1.553,1.553,0,0,1-.409-.055l-1.2-.326a1.551,1.551,0,1,1,.815-2.992l1.2.326a1.551,1.551,0,0,1-.407,3.047Z" transform="translate(-444.376 -479.802)"/></g></g></g></svg>