<svg xmlns="http://www.w3.org/2000/svg" width="135.351" height="120.615" viewBox="0 0 135.351 120.615"><defs><style>.a{fill:#464646;}.b{fill:#289976;}.c{fill:#77d1b5;}.d{fill:none;}</style></defs><g transform="translate(0 -27)"><path class="a" d="M128.964,31.075V76.043a7.2,7.2,0,0,1-7.2,7.2H102.211v8.128h19.907a15,15,0,0,0,15-14.993v-45.3a4.076,4.076,0,0,0-8.152,0Z" transform="translate(-74.319)"/><path class="a" d="M128.964,293.414V248.446a7.2,7.2,0,0,0-7.2-7.2H102.211v-8.128h19.907a15,15,0,0,1,15,14.993v45.3a4.076,4.076,0,0,1-8.152,0Z" transform="translate(-74.319 -149.873)"/><path class="b" d="M13.377,116.963C-6.81,136.4-3.778,177.815,19.964,187.179c22.949,9.052,31.012-15.452,21.037-27.3-9.036-10.735-6.588-16.871,2.167-34.509s-10.465-27.011-29.791-8.4Z" transform="translate(0 -58.016)"/><path class="c" d="M87.387,128.844c4.079-8.216,2.085-14.637-3.161-17.274,3.231,3.484,3.6,9.07-.476,15.528-10.641,16.863-13.71,22.779-4.974,34.226a18.092,18.092,0,0,1,3.519,12.358c-.144,1.891,1.015,4.146.327,5.895-.749,1.9-3.394,3.28-4.755,4.8-3.652,4.073-9.445,6.352-17.052,4.661a25.984,25.984,0,0,0,3.368,1.621c22.949,9.052,31.012-15.452,21.037-27.3-9.037-10.735-6.588-16.871,2.167-34.509Z" transform="translate(-44.219 -61.492)"/><path class="c" d="M43.606,111.189c-4.553-6.591-17.365-6.6-30.227,5.779C-6.752,136.349-3.79,177.585,19.77,187.1,8.113,177.426,4.282,158.048,8.85,141.269c.629-2.309-1.113-5.256-.165-7.434.863-1.983,4.389-3.213,5.52-5.037C20.064,119.344,32.817,109.327,43.606,111.189Z" transform="translate(-0.002 -58.021)"/><g transform="translate(18.432 70.377)"><path class="a" d="M105.4,196.743c-.823-.266-4.406-.18-6.087-4.354a11.166,11.166,0,0,1-.752-4.14,2.183,2.183,0,0,0-4.361-.225,15.232,15.232,0,0,0,1,5.827,10.805,10.805,0,0,0,9,7.1,31.827,31.827,0,0,1,1.2-4.2Z" transform="translate(-86.916 -185.957)"/><path class="a" d="M101.133,254.923c-3.354.081-9.649,2.59-10.586,11.685a2.183,2.183,0,1,0,4.343.448c.764-7.42,5.839-7.756,6.434-7.77a2.187,2.187,0,0,0,.481-.059A14.481,14.481,0,0,1,101.133,254.923Z" transform="translate(-84.261 -236.103)"/><path class="a" d="M75.5,241.563H69.727a2.183,2.183,0,1,1,0-4.366H75.5a2.183,2.183,0,0,1,0,4.366Z" transform="translate(-67.544 -223.214)"/></g><path class="a" d="M274.032,293.414V248.446a7.2,7.2,0,0,1,7.2-7.2h19.554v-8.128H280.877a15,15,0,0,0-15,14.993v45.3a4.076,4.076,0,0,0,8.152,0Z" transform="translate(-193.325 -149.873)"/><path class="a" d="M274.032,31.075V76.043a7.2,7.2,0,0,0,7.2,7.2h19.554v8.128H280.877a15,15,0,0,1-15-14.993v-45.3a4.076,4.076,0,0,1,8.152,0Z" transform="translate(-193.325)"/><path class="b" d="M361.8,116.963c20.187,19.435,17.154,60.852-6.587,70.216-22.949,9.052-31.012-15.452-21.037-27.3,9.036-10.735,6.588-16.871-2.167-34.509S342.476,98.357,361.8,116.963Z" transform="translate(-239.827 -58.016)"/><path class="c" d="M339.266,161.3c9.037-10.735,6.588-16.871-2.167-34.509-5.925-11.936.963-20.083,12.023-18.34-13.863-5.46-23.9,3.244-17.111,16.923,8.755,17.638,11.2,23.775,2.167,34.509-8.123,9.649-4.284,27.686,9.811,29.167C334.171,184.328,332.226,169.667,339.266,161.3Z" transform="translate(-239.827 -58.026)"/><path class="c" d="M388.917,117.06c-6.971-6.712-13.929-9.782-19.564-10.137a37.8,37.8,0,0,1,14.35,9.115c10.094,9.718,14.382,24.931,13.18,38.885-.195,2.263-2.359,4.773-2.841,6.941s.717,3.992-.05,6.007c-3.2,8.4-8.854,15.219-16.875,18.383a24.93,24.93,0,0,1-9.99,1.948c3.955,1.514,9.042,1.5,15.2-.926,23.742-9.364,26.774-50.781,6.587-70.216Z" transform="translate(-266.942 -58.113)"/><path class="a" d="M369.648,185.978a2.187,2.187,0,0,0-2.074,2.283,11.164,11.164,0,0,1-.752,4.142c-1.677,4.166-5.239,4.08-6.087,4.354a31.781,31.781,0,0,1,1.2,4.2c8.377-1.2,10.208-8.952,10-12.922A2.177,2.177,0,0,0,369.648,185.978Z" transform="translate(-262.296 -115.593)"/><path class="a" d="M364.839,254.923a14.494,14.494,0,0,1-.672,4.3,2.19,2.19,0,0,0,.5.059c2.756,0,5.861,2.381,6.416,7.77a2.183,2.183,0,1,0,4.343-.448C374.488,257.513,368.193,255,364.839,254.923Z" transform="translate(-264.791 -165.726)"/><path class="a" d="M399.244,241.563h-5.777a2.183,2.183,0,0,1,0-4.366h5.777a2.183,2.183,0,1,1,0,4.366Z" transform="translate(-284.508 -152.837)"/><circle class="d" cx="1.551" cy="1.551" r="1.551" transform="translate(10.748 76.412)"/><ellipse class="d" cx="1.518" cy="1.051" rx="1.518" ry="1.051" transform="matrix(0.739, -0.674, 0.674, 0.739, 33.267, 118.207)"/><ellipse class="d" cx="1.525" cy="1.068" rx="1.525" ry="1.068" transform="translate(126.059 97.735) rotate(-71.511)"/></g></svg>