<svg xmlns="http://www.w3.org/2000/svg" width="204.39" height="67.686" viewBox="0 0 204.39 67.686"><defs><style>.a{fill:#289976;}.b{fill:#464646;}</style></defs><g transform="translate(-117 -71)"><path class="a" d="M223.92-32.448v16.1h4.2v-6.18h6.5v6.18h4.2v-16.1h-4.2v6.57h-6.5v-6.57Zm23.8,3.538c-4.089,0-6.777,2.527-6.777,6.341,0,3.836,2.688,6.363,6.777,6.363s6.8-2.527,6.8-6.363C254.52-26.383,251.809-28.91,247.72-28.91Zm0,3.308c1.608,0,2.688,1.241,2.688,3.1,0,1.838-1.08,3.078-2.688,3.078-1.585,0-2.665-1.241-2.665-3.078C245.055-24.362,246.135-25.6,247.72-25.6ZM273.2-28.933a4.432,4.432,0,0,0-4.342,2.78,4.126,4.126,0,0,0-4.135-2.78,4.428,4.428,0,0,0-4.043,2.205v-2.045H256.61v12.428h4.066v-6.134c0-1.631.919-2.78,2.366-2.8a2,2,0,0,1,2.045,2.274v6.662h4.089v-6.134c0-1.631.9-2.78,2.343-2.8a2,2,0,0,1,2.045,2.274v6.662h4.089v-7.834C277.654-27.1,275.885-28.933,273.2-28.933Zm12.7.023a6.083,6.083,0,0,0-6.478,6.409c0,3.791,2.5,6.295,6.57,6.295a6.985,6.985,0,0,0,5.422-2.205l-2.136-2.136a4.12,4.12,0,0,1-2.918,1.264,2.784,2.784,0,0,1-2.826-2.182h8.638C292.448-25.993,290.243-28.91,285.9-28.91Zm-2.458,5.261a2.574,2.574,0,0,1,2.481-2.389,2.22,2.22,0,0,1,2.3,2.389Zm16.609-5.261c-4.089,0-6.777,2.527-6.777,6.341,0,3.836,2.688,6.363,6.777,6.363s6.8-2.527,6.8-6.363C306.852-26.383,304.141-28.91,300.052-28.91Zm0,3.308c1.608,0,2.688,1.241,2.688,3.1,0,1.838-1.08,3.078-2.688,3.078-1.585,0-2.665-1.241-2.665-3.078C297.387-24.362,298.467-25.6,300.052-25.6ZM316.8-28.91a4.436,4.436,0,0,0-3.653,1.746v-1.608h-4.089v16.885h4.089v-6.065a4.551,4.551,0,0,0,3.745,1.746c3.446,0,5.7-2.5,5.7-6.295C322.589-26.36,320.268-28.91,316.8-28.91Zm-1.011,9.4c-1.562,0-2.642-1.241-2.642-3.078s1.08-3.1,2.642-3.1c1.608,0,2.688,1.264,2.688,3.1S317.4-19.514,315.789-19.514Zm14.519-9.419a13.691,13.691,0,0,0-5.789,1.355l1.126,2.757a9.1,9.1,0,0,1,3.722-.988c1.562,0,2.366.689,2.366,1.861v.138h-3.239c-3.078.046-4.755,1.4-4.755,3.768,0,2.274,1.585,3.882,4.25,3.882a4.486,4.486,0,0,0,3.745-1.585v1.4h4.02v-8.086C335.729-27.279,333.731-28.933,330.308-28.933Zm-1.057,9.993c-1.057,0-1.677-.551-1.677-1.4,0-.873.574-1.286,1.723-1.286h2.435v1.08A2.452,2.452,0,0,1,329.251-18.94Zm16.563-.942a4.293,4.293,0,0,1-1.539.414c-.712.023-1.126-.391-1.126-1.309v-4.686h3.216v-2.711h-3.216v-3.446h-4.066v3.446H337.36v2.711h1.723v5.33a3.777,3.777,0,0,0,4.158,3.974,6.842,6.842,0,0,0,3.354-.827Zm11.05-9.051a4.567,4.567,0,0,0-4.112,2.182V-33.39h-4.089v17.046h4.089v-6.134a2.5,2.5,0,0,1,2.435-2.8,2.037,2.037,0,0,1,2.113,2.274v6.662h4.089v-7.834C361.39-27.1,359.6-28.933,356.864-28.933Zm13.83,13.807,5.33-13.646h-4.066l-2.642,8.086-2.964-8.086h-4.2l5.146,12.13-.3.574a1.577,1.577,0,0,1-1.493.942,2.431,2.431,0,0,1-1.654-.689l-1.7,2.826a5.7,5.7,0,0,0,3.676,1.286A4.873,4.873,0,0,0,370.694-15.127Z" transform="translate(-54.92 150.39)"/><path class="b" d="M16.65-31.545H3.06V0H16.335c10.215,0,17.1-6.39,17.1-15.8C33.435-25.155,26.64-31.545,16.65-31.545ZM16.875-6.66h-5.58V-24.84H16.47c5,0,8.55,3.69,8.55,9.135C25.02-10.305,21.645-6.66,16.875-6.66Zm24.66-28.89a4.076,4.076,0,0,0-4.23,4.275A4.076,4.076,0,0,0,41.535-27a4.076,4.076,0,0,0,4.23-4.275A4.076,4.076,0,0,0,41.535-35.55Zm-4,11.2V0H45.5V-24.345ZM59.625-20.3v-4.05h-8.01V0h8.01V-12.42c.4-3.375,3.375-5.355,7.83-4.9V-24.66A8.754,8.754,0,0,0,59.625-20.3Zm26.685-4.05v2.97a8.654,8.654,0,0,0-7.11-3.24c-6.03,0-10.215,4.59-10.215,11.52,0,7.065,4.32,11.745,10.395,11.745a8.271,8.271,0,0,0,6.93-3.2v2.61c0,2.835-2.205,4.68-5.85,4.68A13.4,13.4,0,0,1,72.945.36l-2.79,5.535a20.211,20.211,0,0,0,10.89,3.15c7.875,0,13.23-4.32,13.23-11.205V-24.345ZM81.4-7.2c-2.97,0-4.95-2.34-4.95-5.67,0-3.375,1.98-5.715,4.95-5.715,2.925,0,4.9,2.3,4.9,5.715C86.31-9.54,84.33-7.2,81.4-7.2Zm35.01-17.46a8.945,8.945,0,0,0-8.055,4.275v-13h-8.01V0h8.01V-12.015c0-3.2,1.8-5.445,4.77-5.49,2.565,0,4.14,1.71,4.14,4.455V0h8.01V-15.345C125.28-21.06,121.77-24.66,116.415-24.66Zm25.245,0A26.818,26.818,0,0,0,130.32-22l2.205,5.4a17.824,17.824,0,0,1,7.29-1.935c3.06,0,4.635,1.35,4.635,3.645v.27H138.1c-6.03.09-9.315,2.745-9.315,7.38,0,4.455,3.1,7.6,8.325,7.6,3.285,0,5.76-1.08,7.335-3.105V0h7.875V-15.84C152.28-21.42,148.365-24.66,141.66-24.66ZM139.59-5.085c-2.07,0-3.285-1.08-3.285-2.745,0-1.71,1.125-2.52,3.375-2.52h4.77v2.115C143.955-6.39,141.975-5.085,139.59-5.085Zm30.96,7.47,10.44-26.73h-7.965L167.85-8.505l-5.8-15.84H153.81L163.89-.585,163.305.54a3.088,3.088,0,0,1-2.925,1.845,4.763,4.763,0,0,1-3.24-1.35L153.81,6.57a11.157,11.157,0,0,0,7.2,2.52C165.6,9.09,168.705,6.93,170.55,2.385Zm28.89-26.73V-12.33c0,3.2-1.71,5.445-4.545,5.49-2.385,0-3.915-1.665-3.915-4.41v-13.1h-8.01v15.39c0,5.67,3.42,9.315,8.685,9.315a8.594,8.594,0,0,0,7.785-4.32V0h8.01V-24.345Z" transform="translate(113.94 106.55)"/></g></svg>