<svg xmlns="http://www.w3.org/2000/svg" width="132.798" height="130.006" viewBox="0 0 132.798 130.006"><defs><style>.a{fill:#77d1b5;}.b{fill:#289976;}.c{fill:#464646;}</style></defs><g transform="translate(-0.001 0)"><path class="a" d="M56.7,88.429C48,78.4,47.652,66.373,48.427,59.345a11.147,11.147,0,0,0-18.078-9.932C22.1,56.141,9.388,71.137,3.516,102.147-5.57,150.125,3.326,164.761,26,164.761s33.861,1.1,33.861-33.288-6.6-34.436-3.156-43.044Zm0,0" transform="translate(-0.001 -34.759)"/><path class="b" d="M11.531,102.15C17.4,71.139,30.11,56.144,38.363,49.415a10.992,10.992,0,0,1,2.984-1.734,11.091,11.091,0,0,0-11,1.734C22.095,56.144,9.388,71.14,3.515,102.15c-9.086,47.978-.19,62.614,22.479,62.614,2.507,0,4.871.013,7.1-.009-21.989-.4-30.523-15.28-21.56-62.6Zm0,0" transform="translate(0 -34.762)"/><path class="a" d="M284.383,88.429c8.705-10.029,9.049-22.056,8.273-29.084a11.148,11.148,0,0,1,18.079-9.932c8.253,6.728,20.959,21.724,26.832,52.734,9.087,47.979.19,62.614-22.479,62.614s-33.862,1.1-33.862-33.288,6.6-34.436,3.157-43.044Zm0,0" transform="translate(-208.283 -34.759)"/><path class="b" d="M289.243,131.478c0-34.383,6.6-29.091,3.157-37.7,8.705-10.03,9.049-27.4,8.273-34.428a11.155,11.155,0,0,1,7.08-11.666,11.157,11.157,0,0,0-15.1,11.666c.775,7.028.432,19.055-8.273,29.084,3.444,8.609-3.157,8.663-3.157,43.044s11.192,33.288,33.862,33.288c.309,0,.615,0,.919-.009-17.91-.182-26.765-2.7-26.765-33.279Zm0,0" transform="translate(-208.284 -34.764)"/><path class="b" d="M354.5,200.411a2,2,0,0,0,1.209-.406,59.1,59.1,0,0,0,10.246-10.5c1.69-.433,6.6-1.45,10.54.121a2,2,0,0,0,1.482-3.724,19.307,19.307,0,0,0-8.879-1.006,40.542,40.542,0,0,0,4.555-10.465,2,2,0,0,0-3.873-1.033,35.228,35.228,0,0,1-3.358,8.1A33.132,33.132,0,0,0,365,174.4a2,2,0,1,0-3.788,1.311c1.308,3.777,1.494,9.45,1.52,11.364a56.829,56.829,0,0,1-9.446,9.734,2,2,0,0,0,1.213,3.6Zm0,0" transform="translate(-261.064 -127.318)"/><path class="b" d="M414.416,264.631a19.294,19.294,0,0,1-4.055,6.609c-.015.016-.03.031-.045.049a39.711,39.711,0,0,1-8.392,6.9,2,2,0,1,0,2.007,3.469,42.81,42.81,0,0,0,8.811-7.083,18.01,18.01,0,0,1,7.188,1.549,2,2,0,1,0,1.706-3.626,20.637,20.637,0,0,0-5.865-1.7,20.288,20.288,0,0,0,2.453-4.92,2,2,0,0,0-3.808-1.25Zm0,0" transform="translate(-296.936 -194.972)"/><path class="b" d="M329.621,299.472a37.023,37.023,0,0,0,6.015-10.617,2,2,0,1,0-3.812-1.241c-.033.1-3.454,10.338-13.049,16.26a2,2,0,1,0,2.105,3.41,32.961,32.961,0,0,0,5.009-3.805,22.182,22.182,0,0,1-1,7.671,2,2,0,1,0,3.77,1.359c1.724-4.782,1.235-10.758.956-13.036Zm0,0" transform="translate(-235.389 -211.99)"/><path class="b" d="M395.352,350.664a16.817,16.817,0,0,0-4.121-.358,17.233,17.233,0,0,0,1.1-4.523,2,2,0,0,0-3.99-.382,14.656,14.656,0,0,1-1.828,5.532,35.988,35.988,0,0,0-8.735,3.293l-.011.006a.066.066,0,0,1-.012.006,36.053,36.053,0,0,0-7.287,5.834,14.72,14.72,0,0,1-5.691-1.249,2,2,0,1,0-1.706,3.626,17.206,17.206,0,0,0,4.453,1.359,16.8,16.8,0,0,0-1.8,3.725,2,2,0,1,0,3.808,1.25,15.621,15.621,0,0,1,3.252-5.321c.037-.038.073-.077.107-.117a26.233,26.233,0,0,1,15.245-8.665c.041-.008.081-.014.121-.024a15.612,15.612,0,0,1,6.219-.08,2,2,0,1,0,.866-3.912Zm0,0" transform="translate(-268.05 -254.472)"/><path class="b" d="M58.393,189.765a2.008,2.008,0,0,0,.741-.143c3.945-1.57,8.853-.553,10.54-.121a59.15,59.15,0,0,0,10.246,10.5,2,2,0,0,0,2.421-3.194,56.874,56.874,0,0,1-9.446-9.735c.024-1.915.212-7.587,1.519-11.364a2,2,0,1,0-3.787-1.311,33.133,33.133,0,0,0-1.421,7.091,35.266,35.266,0,0,1-3.358-8.1,2,2,0,1,0-3.872,1.032,40.507,40.507,0,0,0,4.555,10.465,19.3,19.3,0,0,0-8.88,1.007,2,2,0,0,0,.743,3.866Zm0,0" transform="translate(-41.762 -127.319)"/><path class="b" d="M28.782,276.317a2,2,0,0,0,.852-.191,18.149,18.149,0,0,1,7.19-1.546,42.873,42.873,0,0,0,8.808,7.08,2,2,0,0,0,2.007-3.469,39.669,39.669,0,0,1-8.391-6.9c-.016-.019-.033-.037-.051-.056a19.267,19.267,0,0,1-4.051-6.6,2,2,0,1,0-3.807,1.25,20.282,20.282,0,0,0,2.453,4.919,20.682,20.682,0,0,0-5.866,1.7,2,2,0,0,0,.855,3.818Zm0,0" transform="translate(-19.83 -194.973)"/><path class="b" d="M142.082,303.874c-9.524-5.878-13-16.112-13.05-16.262a2,2,0,0,0-3.811,1.243,37.023,37.023,0,0,0,6.015,10.617c-.279,2.279-.768,8.254.956,13.036a2,2,0,0,0,3.77-1.359,22.219,22.219,0,0,1-.992-7.668,33.027,33.027,0,0,0,5.005,3.8,2,2,0,0,0,2.105-3.41Zm0,0" transform="translate(-92.669 -211.99)"/><path class="b" d="M47.28,358.823a14.66,14.66,0,0,1-5.69,1.25A36,36,0,0,0,34.3,354.24a.066.066,0,0,0-.012-.006l-.011-.007a36.009,36.009,0,0,0-8.735-3.292,14.732,14.732,0,0,1-1.828-5.532,2,2,0,1,0-3.99.382,17.24,17.24,0,0,0,1.1,4.523,16.776,16.776,0,0,0-4.121.357,2,2,0,1,0,.867,3.913,15.6,15.6,0,0,1,6.217.08c.042.011.085.017.128.025a32.592,32.592,0,0,1,8.385,3.033,32.4,32.4,0,0,1,6.808,5.571,2.077,2.077,0,0,0,.213.239,15.526,15.526,0,0,1,3.193,5.259,2,2,0,0,0,3.809-1.25,16.783,16.783,0,0,0-1.8-3.726,17.235,17.235,0,0,0,4.453-1.358,2,2,0,0,0-1.706-3.628Zm0,0" transform="translate(-11.212 -254.472)"/><path class="c" d="M163.638,107.9c-.761-8.076-3.981-27.316-17.556-38.444-11.974-9.815-18.79-18.287-21.9-22.661a11.225,11.225,0,0,1-2.084-6.51V3.506A3.507,3.507,0,0,0,118.589,0h-9.407a3.507,3.507,0,0,0-3.507,3.507V40.282a11.225,11.225,0,0,1-2.084,6.51c-3.111,4.374-9.928,12.846-21.9,22.661C68.114,80.58,64.894,99.82,64.132,107.9a3.392,3.392,0,0,0,3.037,3.729A3.327,3.327,0,0,0,70.7,109c1.3-6.092,5.581-21.429,17.307-31.8,11.692-10.342,18.835-12.9,21.786-18.19a4.54,4.54,0,0,1,3.956-2.355h.282a4.54,4.54,0,0,1,3.956,2.355c2.951,5.291,10.094,7.848,21.786,18.19,11.726,10.374,16.01,25.71,17.307,31.8a3.327,3.327,0,0,0,3.526,2.623,3.391,3.391,0,0,0,3.036-3.729Zm0,0" transform="translate(-47.486)"/></g></svg>