<svg xmlns="http://www.w3.org/2000/svg" xmlns:xlink="http://www.w3.org/1999/xlink" width="170" height="169" viewBox="0 0 170 169"><defs><style>.a{fill:none;}.b{opacity:0.5;clip-path:url(#a);}.c{fill:#289976;}</style><clipPath id="a"><rect class="a" width="170" height="169"/></clipPath></defs><g class="b"><g transform="translate(-249 -128)"><circle class="c" cx="5" cy="5" r="5" transform="translate(249 128)"/></g><g transform="translate(-219 -128)"><circle class="c" cx="5" cy="5" r="5" transform="translate(249 128)"/></g><g transform="translate(-189 -128)"><circle class="c" cx="5" cy="5" r="5" transform="translate(249 128)"/></g><g transform="translate(-159 -128)"><circle class="c" cx="5" cy="5" r="5" transform="translate(249 128)"/></g><g transform="translate(-129 -128)"><circle class="c" cx="5" cy="5" r="5" transform="translate(249 128)"/></g><g transform="translate(-99 -128)"><circle class="c" cx="5" cy="5" r="5" transform="translate(249 128)"/></g><g transform="translate(-249 -103)"><circle class="c" cx="5" cy="5" r="5" transform="translate(249 128)"/></g><g transform="translate(-219 -103)"><circle class="c" cx="5" cy="5" r="5" transform="translate(249 128)"/></g><g transform="translate(-189 -103)"><circle class="c" cx="5" cy="5" r="5" transform="translate(249 128)"/></g><g transform="translate(-159 -103)"><circle class="c" cx="5" cy="5" r="5" transform="translate(249 128)"/></g><g transform="translate(-129 -103)"><circle class="c" cx="5" cy="5" r="5" transform="translate(249 128)"/></g><g transform="translate(-99 -103)"><circle class="c" cx="5" cy="5" r="5" transform="translate(249 128)"/></g><g transform="translate(-249 -78)"><circle class="c" cx="5" cy="5" r="5" transform="translate(249 128)"/></g><g transform="translate(-219 -78)"><circle class="c" cx="5" cy="5" r="5" transform="translate(249 128)"/></g><g transform="translate(-189 -78)"><circle class="c" cx="5" cy="5" r="5" transform="translate(249 128)"/></g><g transform="translate(-159 -78)"><circle class="c" cx="5" cy="5" r="5" transform="translate(249 128)"/></g><g transform="translate(-129 -78)"><circle class="c" cx="5" cy="5" r="5" transform="translate(249 128)"/></g><g transform="translate(-99 -78)"><circle class="c" cx="5" cy="5" r="5" transform="translate(249 128)"/></g><g transform="translate(-249 -53)"><circle class="c" cx="5" cy="5" r="5" transform="translate(249 128)"/></g><g transform="translate(-219 -53)"><circle class="c" cx="5" cy="5" r="5" transform="translate(249 128)"/></g><g transform="translate(-189 -53)"><circle class="c" cx="5" cy="5" r="5" transform="translate(249 128)"/></g><g transform="translate(-159 -53)"><circle class="c" cx="5" cy="5" r="5" transform="translate(249 128)"/></g><g transform="translate(-129 -53)"><circle class="c" cx="5" cy="5" r="5" transform="translate(249 128)"/></g><g transform="translate(-99 -53)"><circle class="c" cx="5" cy="5" r="5" transform="translate(249 128)"/></g><g transform="translate(-249 -28)"><circle class="c" cx="5" cy="5" r="5" transform="translate(249 128)"/></g><g transform="translate(-219 -28)"><circle class="c" cx="5" cy="5" r="5" transform="translate(249 128)"/></g><g transform="translate(-189 -28)"><circle class="c" cx="5" cy="5" r="5" transform="translate(249 128)"/></g><g transform="translate(-159 -28)"><circle class="c" cx="5" cy="5" r="5" transform="translate(249 128)"/></g><g transform="translate(-129 -28)"><circle class="c" cx="5" cy="5" r="5" transform="translate(249 128)"/></g><g transform="translate(-99 -28)"><circle class="c" cx="5" cy="5" r="5" transform="translate(249 128)"/></g><g transform="translate(-249 -3)"><circle class="c" cx="5" cy="5" r="5" transform="translate(249 128)"/></g><g transform="translate(-219 -3)"><circle class="c" cx="5" cy="5" r="5" transform="translate(249 128)"/></g><g transform="translate(-189 -3)"><circle class="c" cx="5" cy="5" r="5" transform="translate(249 128)"/></g><g transform="translate(-159 -3)"><circle class="c" cx="5" cy="5" r="5" transform="translate(249 128)"/></g><g transform="translate(-129 -3)"><circle class="c" cx="5" cy="5" r="5" transform="translate(249 128)"/></g><g transform="translate(-99 -3)"><circle class="c" cx="5" cy="5" r="5" transform="translate(249 128)"/></g><g transform="translate(-249 22)"><circle class="c" cx="5" cy="5" r="5" transform="translate(249 128)"/></g><g transform="translate(-219 22)"><circle class="c" cx="5" cy="5" r="5" transform="translate(249 128)"/></g><g transform="translate(-189 22)"><circle class="c" cx="5" cy="5" r="5" transform="translate(249 128)"/></g><g transform="translate(-159 22)"><circle class="c" cx="5" cy="5" r="5" transform="translate(249 128)"/></g><g transform="translate(-129 22)"><circle class="c" cx="5" cy="5" r="5" transform="translate(249 128)"/></g><g transform="translate(-99 22)"><circle class="c" cx="5" cy="5" r="5" transform="translate(249 128)"/></g></g></svg>