<svg xmlns="http://www.w3.org/2000/svg" width="130" height="160" viewBox="0 0 130 160"><defs><style>.a{fill:#289976;}</style></defs><g transform="translate(-158 -2410)"><circle class="a" cx="5" cy="5" r="5" transform="translate(158 2410)"/><circle class="a" cx="5" cy="5" r="5" transform="translate(188 2410)"/><circle class="a" cx="5" cy="5" r="5" transform="translate(218 2410)"/><circle class="a" cx="5" cy="5" r="5" transform="translate(248 2410)"/><circle class="a" cx="5" cy="5" r="5" transform="translate(278 2410)"/><circle class="a" cx="5" cy="5" r="5" transform="translate(158 2435)"/><circle class="a" cx="5" cy="5" r="5" transform="translate(188 2435)"/><circle class="a" cx="5" cy="5" r="5" transform="translate(218 2435)"/><circle class="a" cx="5" cy="5" r="5" transform="translate(248 2435)"/><circle class="a" cx="5" cy="5" r="5" transform="translate(278 2435)"/><circle class="a" cx="5" cy="5" r="5" transform="translate(158 2460)"/><circle class="a" cx="5" cy="5" r="5" transform="translate(188 2460)"/><circle class="a" cx="5" cy="5" r="5" transform="translate(218 2460)"/><circle class="a" cx="5" cy="5" r="5" transform="translate(248 2460)"/><circle class="a" cx="5" cy="5" r="5" transform="translate(278 2460)"/><circle class="a" cx="5" cy="5" r="5" transform="translate(158 2485)"/><circle class="a" cx="5" cy="5" r="5" transform="translate(188 2485)"/><circle class="a" cx="5" cy="5" r="5" transform="translate(218 2485)"/><circle class="a" cx="5" cy="5" r="5" transform="translate(248 2485)"/><circle class="a" cx="5" cy="5" r="5" transform="translate(278 2485)"/><circle class="a" cx="5" cy="5" r="5" transform="translate(158 2510)"/><circle class="a" cx="5" cy="5" r="5" transform="translate(188 2510)"/><circle class="a" cx="5" cy="5" r="5" transform="translate(218 2510)"/><circle class="a" cx="5" cy="5" r="5" transform="translate(248 2510)"/><circle class="a" cx="5" cy="5" r="5" transform="translate(278 2510)"/><circle class="a" cx="5" cy="5" r="5" transform="translate(158 2535)"/><circle class="a" cx="5" cy="5" r="5" transform="translate(188 2535)"/><circle class="a" cx="5" cy="5" r="5" transform="translate(218 2535)"/><circle class="a" cx="5" cy="5" r="5" transform="translate(248 2535)"/><circle class="a" cx="5" cy="5" r="5" transform="translate(278 2535)"/><circle class="a" cx="5" cy="5" r="5" transform="translate(158 2560)"/><circle class="a" cx="5" cy="5" r="5" transform="translate(188 2560)"/><circle class="a" cx="5" cy="5" r="5" transform="translate(218 2560)"/><circle class="a" cx="5" cy="5" r="5" transform="translate(248 2560)"/><circle class="a" cx="5" cy="5" r="5" transform="translate(278 2560)"/></g></svg>