<svg xmlns="http://www.w3.org/2000/svg" xmlns:xlink="http://www.w3.org/1999/xlink" width="156" height="187" viewBox="0 0 156 187"><defs><style>.a{fill:none;}.b{opacity:0.5;clip-path:url(#a);}.c{fill:#a227ff;}</style><clipPath id="a"><rect class="a" width="156" height="187"/></clipPath></defs><g class="b"><g transform="translate(-249 -128)"><circle class="c" cx="5" cy="5" r="5" transform="translate(249 128)"/></g><g transform="translate(-226 -128)"><circle class="c" cx="5" cy="5" r="5" transform="translate(249 128)"/></g><g transform="translate(-203 -128)"><circle class="c" cx="5" cy="5" r="5" transform="translate(249 128)"/></g><g transform="translate(-180 -128)"><circle class="c" cx="5" cy="5" r="5" transform="translate(249 128)"/></g><g transform="translate(-157 -128)"><circle class="c" cx="5" cy="5" r="5" transform="translate(249 128)"/></g><g transform="translate(-134 -128)"><circle class="c" cx="5" cy="5" r="5" transform="translate(249 128)"/></g><g transform="translate(-111 -128)"><circle class="c" cx="5" cy="5" r="5" transform="translate(249 128)"/></g><g transform="translate(-249 -103)"><circle class="c" cx="5" cy="5" r="5" transform="translate(249 128)"/></g><g transform="translate(-226 -103)"><circle class="c" cx="5" cy="5" r="5" transform="translate(249 128)"/></g><g transform="translate(-203 -103)"><circle class="c" cx="5" cy="5" r="5" transform="translate(249 128)"/></g><g transform="translate(-180 -103)"><circle class="c" cx="5" cy="5" r="5" transform="translate(249 128)"/></g><g transform="translate(-157 -103)"><circle class="c" cx="5" cy="5" r="5" transform="translate(249 128)"/></g><g transform="translate(-134 -103)"><circle class="c" cx="5" cy="5" r="5" transform="translate(249 128)"/></g><g transform="translate(-111 -103)"><circle class="c" cx="5" cy="5" r="5" transform="translate(249 128)"/></g><g transform="translate(-249 -78)"><circle class="c" cx="5" cy="5" r="5" transform="translate(249 128)"/></g><g transform="translate(-226 -78)"><circle class="c" cx="5" cy="5" r="5" transform="translate(249 128)"/></g><g transform="translate(-203 -78)"><circle class="c" cx="5" cy="5" r="5" transform="translate(249 128)"/></g><g transform="translate(-180 -78)"><circle class="c" cx="5" cy="5" r="5" transform="translate(249 128)"/></g><g transform="translate(-157 -78)"><circle class="c" cx="5" cy="5" r="5" transform="translate(249 128)"/></g><g transform="translate(-134 -78)"><circle class="c" cx="5" cy="5" r="5" transform="translate(249 128)"/></g><g transform="translate(-111 -78)"><circle class="c" cx="5" cy="5" r="5" transform="translate(249 128)"/></g><g transform="translate(-249 -53)"><circle class="c" cx="5" cy="5" r="5" transform="translate(249 128)"/></g><g transform="translate(-226 -53)"><circle class="c" cx="5" cy="5" r="5" transform="translate(249 128)"/></g><g transform="translate(-203 -53)"><circle class="c" cx="5" cy="5" r="5" transform="translate(249 128)"/></g><g transform="translate(-180 -53)"><circle class="c" cx="5" cy="5" r="5" transform="translate(249 128)"/></g><g transform="translate(-157 -53)"><circle class="c" cx="5" cy="5" r="5" transform="translate(249 128)"/></g><g transform="translate(-134 -53)"><circle class="c" cx="5" cy="5" r="5" transform="translate(249 128)"/></g><g transform="translate(-111 -53)"><circle class="c" cx="5" cy="5" r="5" transform="translate(249 128)"/></g><g transform="translate(-249 -28)"><circle class="c" cx="5" cy="5" r="5" transform="translate(249 128)"/></g><g transform="translate(-226 -28)"><circle class="c" cx="5" cy="5" r="5" transform="translate(249 128)"/></g><g transform="translate(-203 -28)"><circle class="c" cx="5" cy="5" r="5" transform="translate(249 128)"/></g><g transform="translate(-180 -28)"><circle class="c" cx="5" cy="5" r="5" transform="translate(249 128)"/></g><g transform="translate(-157 -28)"><circle class="c" cx="5" cy="5" r="5" transform="translate(249 128)"/></g><g transform="translate(-134 -28)"><circle class="c" cx="5" cy="5" r="5" transform="translate(249 128)"/></g><g transform="translate(-111 -28)"><circle class="c" cx="5" cy="5" r="5" transform="translate(249 128)"/></g><g transform="translate(-249 -3)"><circle class="c" cx="5" cy="5" r="5" transform="translate(249 128)"/></g><g transform="translate(-226 -3)"><circle class="c" cx="5" cy="5" r="5" transform="translate(249 128)"/></g><g transform="translate(-203 -3)"><circle class="c" cx="5" cy="5" r="5" transform="translate(249 128)"/></g><g transform="translate(-180 -3)"><circle class="c" cx="5" cy="5" r="5" transform="translate(249 128)"/></g><g transform="translate(-157 -3)"><circle class="c" cx="5" cy="5" r="5" transform="translate(249 128)"/></g><g transform="translate(-134 -3)"><circle class="c" cx="5" cy="5" r="5" transform="translate(249 128)"/></g><g transform="translate(-111 -3)"><circle class="c" cx="5" cy="5" r="5" transform="translate(249 128)"/></g><g transform="translate(-249 22)"><circle class="c" cx="5" cy="5" r="5" transform="translate(249 128)"/></g><g transform="translate(-226 22)"><circle class="c" cx="5" cy="5" r="5" transform="translate(249 128)"/></g><g transform="translate(-203 22)"><circle class="c" cx="5" cy="5" r="5" transform="translate(249 128)"/></g><g transform="translate(-180 22)"><circle class="c" cx="5" cy="5" r="5" transform="translate(249 128)"/></g><g transform="translate(-157 22)"><circle class="c" cx="5" cy="5" r="5" transform="translate(249 128)"/></g><g transform="translate(-134 22)"><circle class="c" cx="5" cy="5" r="5" transform="translate(249 128)"/></g><g transform="translate(-111 22)"><circle class="c" cx="5" cy="5" r="5" transform="translate(249 128)"/></g><g transform="translate(-249 47)"><circle class="c" cx="5" cy="5" r="5" transform="translate(249 128)"/></g><g transform="translate(-226 47)"><circle class="c" cx="5" cy="5" r="5" transform="translate(249 128)"/></g><g transform="translate(-203 47)"><circle class="c" cx="5" cy="5" r="5" transform="translate(249 128)"/></g><g transform="translate(-180 47)"><circle class="c" cx="5" cy="5" r="5" transform="translate(249 128)"/></g><g transform="translate(-157 47)"><circle class="c" cx="5" cy="5" r="5" transform="translate(249 128)"/></g><g transform="translate(-134 47)"><circle class="c" cx="5" cy="5" r="5" transform="translate(249 128)"/></g><g transform="translate(-111 47)"><circle class="c" cx="5" cy="5" r="5" transform="translate(249 128)"/></g></g></svg>