<svg xmlns="http://www.w3.org/2000/svg" width="56.013" height="112.026" viewBox="0 0 56.013 112.026"><defs><style>.a{fill:#77d1b5;}.b{fill:#289976;}</style></defs><g transform="translate(-17 -2)"><path class="a" d="M29.468,47A7.469,7.469,0,0,1,22,54.468V69.405h5.6l.321.321a18.03,18.03,0,0,0,25.5,0l.321-.321h5.6V54.468A7.469,7.469,0,0,1,51.874,47" transform="translate(4.335 39.019)"/><g transform="translate(17 86.019)"><path class="b" d="M38.07,58.2a18.028,18.028,0,0,0,12.749-5.28l.321-.321v-.71A7.4,7.4,0,0,1,49.272,47h-.246a17.94,17.94,0,0,1-21.912,0h-.246A7.4,7.4,0,0,1,25,51.892v.71l.321.321A18.028,18.028,0,0,0,38.07,58.2Z" transform="translate(-10.063 -47)"/><path class="b" d="M42,53h9.335v7.468H42Z" transform="translate(4.677 -41.797)"/><path class="b" d="M17,53h9.335v7.468H17Z" transform="translate(-17 -41.797)"/></g><path class="a" d="M29.468,34A7.469,7.469,0,0,1,22,41.468V56.405h5.6l.321.321a18.03,18.03,0,0,0,25.5,0l.321-.321h5.6V41.468A7.469,7.469,0,0,1,51.874,34" transform="translate(4.335 27.747)"/><path class="b" d="M38.07,45.2a18.028,18.028,0,0,0,12.749-5.28l.321-.321v-.709A7.4,7.4,0,0,1,49.272,34h-.246a17.94,17.94,0,0,1-21.912,0h-.246A7.4,7.4,0,0,1,25,38.892V39.6l.321.321A18.028,18.028,0,0,0,38.07,45.2Z" transform="translate(6.937 27.747)"/><path class="b" d="M42,40h9.335v7.468H42Z" transform="translate(21.677 32.95)"/><path class="b" d="M17,40h9.335v7.468H17Z" transform="translate(0 32.95)"/><path class="a" d="M29.468,21A7.469,7.469,0,0,1,22,28.468V43.405h5.6l.321.321a18.03,18.03,0,0,0,25.5,0l.321-.321h5.6V28.468A7.469,7.469,0,0,1,51.874,21" transform="translate(4.335 16.475)"/><path class="b" d="M38.07,32.2a18.028,18.028,0,0,0,12.749-5.28l.321-.321v-.709A7.4,7.4,0,0,1,49.272,21h-.246a17.94,17.94,0,0,1-21.912,0h-.246A7.4,7.4,0,0,1,25,25.892V26.6l.321.321A18.028,18.028,0,0,0,38.07,32.2Z" transform="translate(6.937 16.475)"/><path class="b" d="M42,27h9.335v7.468H42Z" transform="translate(21.677 21.677)"/><path class="b" d="M17,27h9.335v7.468H17Z" transform="translate(0 21.677)"/><path class="a" d="M29.468,8A7.469,7.469,0,0,1,22,15.468V30.405h5.6l.321.321a18.03,18.03,0,0,0,25.5,0l.321-.321h5.6V15.468A7.469,7.469,0,0,1,51.874,8" transform="translate(4.335 5.203)"/><path class="b" d="M38.07,19.2a18.028,18.028,0,0,0,12.749-5.28l.321-.321v-.709A7.4,7.4,0,0,1,49.272,8h-.246A18.021,18.021,0,0,1,38.07,11.734,18.025,18.025,0,0,1,27.114,8h-.246A7.4,7.4,0,0,1,25,12.892V13.6l.321.321A18.028,18.028,0,0,0,38.07,19.2Z" transform="translate(6.937 5.203)"/><path class="b" d="M42,14h9.335v7.468H42Z" transform="translate(21.677 10.405)"/><path class="b" d="M17,14h9.335v7.468H17Z" transform="translate(0 10.405)"/><path class="a" d="M22,2v9.335h5.6l.321.321a18.028,18.028,0,0,0,12.749,5.28,18.028,18.028,0,0,0,12.749-5.28l.321-.321h5.6V2" transform="translate(4.335 0)"/><path class="b" d="M42,2h9.335V7.6H42Z" transform="translate(21.677 0)"/><path class="b" d="M17,2h9.335V7.6H17Z" transform="translate(0 0)"/></g></svg>