<svg xmlns="http://www.w3.org/2000/svg" width="19.417" height="18.78" viewBox="0 0 19.417 18.78"><defs><style>.a{fill:#fff;}</style></defs><path class="a" d="M19.417,2.223a7.292,7.292,0,0,1-2.294.748A4.657,4.657,0,0,0,18.875.352,7.237,7.237,0,0,1,16.351,1.5,3.725,3.725,0,0,0,13.443,0c-2.2,0-3.978,2.129-3.978,4.74A5.776,5.776,0,0,0,9.557,5.82,10.8,10.8,0,0,1,1.352.864a5.481,5.481,0,0,0-.545,2.4A5.036,5.036,0,0,0,2.575,7.2a3.464,3.464,0,0,1-1.8-.584v.052a4.633,4.633,0,0,0,3.189,4.656,3.377,3.377,0,0,1-1.044.156,2.975,2.975,0,0,1-.754-.081,4.18,4.18,0,0,0,3.72,3.3A7.23,7.23,0,0,1,.953,16.719,6.279,6.279,0,0,1,0,16.654,9.952,9.952,0,0,0,6.107,18.78c7.325,0,11.33-7.223,11.33-13.484,0-.209-.006-.412-.015-.613A8.938,8.938,0,0,0,19.417,2.223Z"/></svg>